<mxfile host="app.diagrams.net" agent="Mozilla/5.0 (Macintosh; Intel Mac OS X 10_15_7) AppleWebKit/537.36 (KHTML, like Gecko) Chrome/134.0.0.0 Safari/537.36" version="26.0.16">
  <diagram name="Page-1" id="c7558073-3199-34d8-9f00-42111426c3f3">
    <mxGraphModel dx="1912" dy="694" grid="1" gridSize="10" guides="1" tooltips="1" connect="1" arrows="1" fold="1" page="1" pageScale="1" pageWidth="826" pageHeight="1169" background="none" math="0" shadow="0">
      <root>
        <mxCell id="0" />
        <mxCell id="1" parent="0" />
        <mxCell id="7wCd9xXMiUG44QtGpDFo-137" value="" style="edgeStyle=orthogonalEdgeStyle;rounded=0;orthogonalLoop=1;jettySize=auto;html=1;" edge="1" parent="1" source="7wCd9xXMiUG44QtGpDFo-96" target="7wCd9xXMiUG44QtGpDFo-99">
          <mxGeometry relative="1" as="geometry" />
        </mxCell>
        <mxCell id="7wCd9xXMiUG44QtGpDFo-96" value="Alert Triggered" style="shape=parallelogram;perimeter=parallelogramPerimeter;whiteSpace=wrap;html=1;fixedSize=1;" vertex="1" parent="1">
          <mxGeometry x="40" y="40" width="120" height="60" as="geometry" />
        </mxCell>
        <mxCell id="7wCd9xXMiUG44QtGpDFo-138" value="" style="edgeStyle=orthogonalEdgeStyle;rounded=0;orthogonalLoop=1;jettySize=auto;html=1;" edge="1" parent="1" source="7wCd9xXMiUG44QtGpDFo-99" target="7wCd9xXMiUG44QtGpDFo-101">
          <mxGeometry relative="1" as="geometry" />
        </mxCell>
        <mxCell id="7wCd9xXMiUG44QtGpDFo-99" value="Ticket Raised in Halo" style="rounded=0;whiteSpace=wrap;html=1;" vertex="1" parent="1">
          <mxGeometry x="40" y="130" width="120" height="60" as="geometry" />
        </mxCell>
        <mxCell id="7wCd9xXMiUG44QtGpDFo-108" value="No" style="edgeStyle=orthogonalEdgeStyle;rounded=0;orthogonalLoop=1;jettySize=auto;html=1;" edge="1" parent="1" source="7wCd9xXMiUG44QtGpDFo-101" target="7wCd9xXMiUG44QtGpDFo-107">
          <mxGeometry relative="1" as="geometry" />
        </mxCell>
        <mxCell id="7wCd9xXMiUG44QtGpDFo-111" value="" style="edgeStyle=orthogonalEdgeStyle;rounded=0;orthogonalLoop=1;jettySize=auto;html=1;" edge="1" parent="1" source="7wCd9xXMiUG44QtGpDFo-101" target="7wCd9xXMiUG44QtGpDFo-110">
          <mxGeometry relative="1" as="geometry" />
        </mxCell>
        <mxCell id="7wCd9xXMiUG44QtGpDFo-112" value="Yes" style="edgeLabel;html=1;align=center;verticalAlign=middle;resizable=0;points=[];" vertex="1" connectable="0" parent="7wCd9xXMiUG44QtGpDFo-111">
          <mxGeometry x="-0.25" y="1" relative="1" as="geometry">
            <mxPoint as="offset" />
          </mxGeometry>
        </mxCell>
        <mxCell id="7wCd9xXMiUG44QtGpDFo-101" value="Datawarehouse?" style="rhombus;whiteSpace=wrap;html=1;" vertex="1" parent="1">
          <mxGeometry x="40" y="230" width="120" height="80" as="geometry" />
        </mxCell>
        <mxCell id="7wCd9xXMiUG44QtGpDFo-144" value="" style="edgeStyle=orthogonalEdgeStyle;rounded=0;orthogonalLoop=1;jettySize=auto;html=1;" edge="1" parent="1" source="7wCd9xXMiUG44QtGpDFo-103" target="7wCd9xXMiUG44QtGpDFo-110">
          <mxGeometry relative="1" as="geometry" />
        </mxCell>
        <mxCell id="7wCd9xXMiUG44QtGpDFo-103" value="PagerDuty Alert" style="rounded=0;whiteSpace=wrap;html=1;" vertex="1" parent="1">
          <mxGeometry x="200" y="360" width="120" height="60" as="geometry" />
        </mxCell>
        <mxCell id="7wCd9xXMiUG44QtGpDFo-109" value="No" style="edgeStyle=orthogonalEdgeStyle;rounded=0;orthogonalLoop=1;jettySize=auto;html=1;" edge="1" parent="1" source="7wCd9xXMiUG44QtGpDFo-107" target="7wCd9xXMiUG44QtGpDFo-103">
          <mxGeometry relative="1" as="geometry" />
        </mxCell>
        <mxCell id="7wCd9xXMiUG44QtGpDFo-107" value="Business Hours" style="rhombus;whiteSpace=wrap;html=1;" vertex="1" parent="1">
          <mxGeometry x="40" y="350" width="120" height="80" as="geometry" />
        </mxCell>
        <mxCell id="7wCd9xXMiUG44QtGpDFo-140" value="" style="edgeStyle=orthogonalEdgeStyle;rounded=0;orthogonalLoop=1;jettySize=auto;html=1;" edge="1" parent="1" source="7wCd9xXMiUG44QtGpDFo-110">
          <mxGeometry relative="1" as="geometry">
            <mxPoint x="360" y="270" as="targetPoint" />
          </mxGeometry>
        </mxCell>
        <mxCell id="7wCd9xXMiUG44QtGpDFo-110" value="Triaged by Hippo" style="rounded=0;whiteSpace=wrap;html=1;" vertex="1" parent="1">
          <mxGeometry x="200" y="240" width="120" height="60" as="geometry" />
        </mxCell>
        <mxCell id="7wCd9xXMiUG44QtGpDFo-146" style="edgeStyle=orthogonalEdgeStyle;rounded=0;orthogonalLoop=1;jettySize=auto;html=1;" edge="1" parent="1" source="7wCd9xXMiUG44QtGpDFo-113" target="7wCd9xXMiUG44QtGpDFo-119">
          <mxGeometry relative="1" as="geometry" />
        </mxCell>
        <mxCell id="7wCd9xXMiUG44QtGpDFo-113" value="Resolve Incident" style="rounded=0;whiteSpace=wrap;html=1;" vertex="1" parent="1">
          <mxGeometry x="360" y="360" width="120" height="60" as="geometry" />
        </mxCell>
        <mxCell id="7wCd9xXMiUG44QtGpDFo-119" value="Post Incident Actions" style="rounded=0;whiteSpace=wrap;html=1;" vertex="1" parent="1">
          <mxGeometry x="360" y="470" width="120" height="60" as="geometry" />
        </mxCell>
        <mxCell id="7wCd9xXMiUG44QtGpDFo-122" value="" style="edgeStyle=orthogonalEdgeStyle;rounded=0;orthogonalLoop=1;jettySize=auto;html=1;" edge="1" parent="1" source="7wCd9xXMiUG44QtGpDFo-120" target="7wCd9xXMiUG44QtGpDFo-113">
          <mxGeometry relative="1" as="geometry" />
        </mxCell>
        <mxCell id="7wCd9xXMiUG44QtGpDFo-123" value="No" style="edgeLabel;html=1;align=center;verticalAlign=middle;resizable=0;points=[];" vertex="1" connectable="0" parent="7wCd9xXMiUG44QtGpDFo-122">
          <mxGeometry x="-0.2" y="-2" relative="1" as="geometry">
            <mxPoint as="offset" />
          </mxGeometry>
        </mxCell>
        <mxCell id="7wCd9xXMiUG44QtGpDFo-125" value="" style="edgeStyle=orthogonalEdgeStyle;rounded=0;orthogonalLoop=1;jettySize=auto;html=1;" edge="1" parent="1" source="7wCd9xXMiUG44QtGpDFo-120" target="7wCd9xXMiUG44QtGpDFo-124">
          <mxGeometry relative="1" as="geometry" />
        </mxCell>
        <mxCell id="7wCd9xXMiUG44QtGpDFo-126" value="Yes" style="edgeLabel;html=1;align=center;verticalAlign=middle;resizable=0;points=[];" vertex="1" connectable="0" parent="7wCd9xXMiUG44QtGpDFo-125">
          <mxGeometry y="-2" relative="1" as="geometry">
            <mxPoint as="offset" />
          </mxGeometry>
        </mxCell>
        <mxCell id="7wCd9xXMiUG44QtGpDFo-120" value="Prod Access Needed?" style="rhombus;whiteSpace=wrap;html=1;" vertex="1" parent="1">
          <mxGeometry x="360" y="230" width="120" height="80" as="geometry" />
        </mxCell>
        <mxCell id="7wCd9xXMiUG44QtGpDFo-147" style="edgeStyle=orthogonalEdgeStyle;rounded=0;orthogonalLoop=1;jettySize=auto;html=1;entryX=1;entryY=0.5;entryDx=0;entryDy=0;" edge="1" parent="1" source="7wCd9xXMiUG44QtGpDFo-124" target="7wCd9xXMiUG44QtGpDFo-113">
          <mxGeometry relative="1" as="geometry">
            <Array as="points">
              <mxPoint x="580" y="390" />
            </Array>
          </mxGeometry>
        </mxCell>
        <mxCell id="7wCd9xXMiUG44QtGpDFo-124" value="Break Glass" style="rounded=0;whiteSpace=wrap;html=1;" vertex="1" parent="1">
          <mxGeometry x="520" y="240" width="120" height="60" as="geometry" />
        </mxCell>
        <mxCell id="7wCd9xXMiUG44QtGpDFo-133" style="edgeStyle=orthogonalEdgeStyle;rounded=0;orthogonalLoop=1;jettySize=auto;html=1;entryX=0.5;entryY=0;entryDx=0;entryDy=0;" edge="1" parent="1" source="7wCd9xXMiUG44QtGpDFo-130" target="7wCd9xXMiUG44QtGpDFo-132">
          <mxGeometry relative="1" as="geometry" />
        </mxCell>
        <mxCell id="7wCd9xXMiUG44QtGpDFo-130" value="Manual Incident" style="shape=parallelogram;perimeter=parallelogramPerimeter;whiteSpace=wrap;html=1;fixedSize=1;" vertex="1" parent="1">
          <mxGeometry x="-90" y="40" width="120" height="60" as="geometry" />
        </mxCell>
        <mxCell id="7wCd9xXMiUG44QtGpDFo-136" style="edgeStyle=orthogonalEdgeStyle;rounded=0;orthogonalLoop=1;jettySize=auto;html=1;entryX=0;entryY=0.5;entryDx=0;entryDy=0;" edge="1" parent="1" source="7wCd9xXMiUG44QtGpDFo-132" target="7wCd9xXMiUG44QtGpDFo-101">
          <mxGeometry relative="1" as="geometry">
            <Array as="points">
              <mxPoint x="-30" y="270" />
            </Array>
          </mxGeometry>
        </mxCell>
        <mxCell id="7wCd9xXMiUG44QtGpDFo-132" value="Ticket Raised in Halo" style="rounded=0;whiteSpace=wrap;html=1;" vertex="1" parent="1">
          <mxGeometry x="-90" y="130" width="120" height="60" as="geometry" />
        </mxCell>
        <mxCell id="7wCd9xXMiUG44QtGpDFo-142" style="edgeStyle=orthogonalEdgeStyle;rounded=0;orthogonalLoop=1;jettySize=auto;html=1;entryX=0.367;entryY=0.983;entryDx=0;entryDy=0;entryPerimeter=0;" edge="1" parent="1" source="7wCd9xXMiUG44QtGpDFo-107" target="7wCd9xXMiUG44QtGpDFo-110">
          <mxGeometry relative="1" as="geometry">
            <Array as="points">
              <mxPoint x="140" y="330" />
              <mxPoint x="244" y="330" />
            </Array>
          </mxGeometry>
        </mxCell>
        <mxCell id="7wCd9xXMiUG44QtGpDFo-143" value="Yes" style="edgeLabel;html=1;align=center;verticalAlign=middle;resizable=0;points=[];" vertex="1" connectable="0" parent="7wCd9xXMiUG44QtGpDFo-142">
          <mxGeometry x="0.0531" y="2" relative="1" as="geometry">
            <mxPoint as="offset" />
          </mxGeometry>
        </mxCell>
        <mxCell id="7wCd9xXMiUG44QtGpDFo-150" value="" style="edgeStyle=orthogonalEdgeStyle;rounded=0;orthogonalLoop=1;jettySize=auto;html=1;" edge="1" parent="1" source="7wCd9xXMiUG44QtGpDFo-148" target="7wCd9xXMiUG44QtGpDFo-149">
          <mxGeometry relative="1" as="geometry" />
        </mxCell>
        <mxCell id="7wCd9xXMiUG44QtGpDFo-148" value="Change Request" style="shape=parallelogram;perimeter=parallelogramPerimeter;whiteSpace=wrap;html=1;fixedSize=1;" vertex="1" parent="1">
          <mxGeometry x="-230" y="40" width="120" height="60" as="geometry" />
        </mxCell>
        <mxCell id="7wCd9xXMiUG44QtGpDFo-152" value="" style="edgeStyle=orthogonalEdgeStyle;rounded=0;orthogonalLoop=1;jettySize=auto;html=1;" edge="1" parent="1" source="7wCd9xXMiUG44QtGpDFo-149" target="7wCd9xXMiUG44QtGpDFo-151">
          <mxGeometry relative="1" as="geometry" />
        </mxCell>
        <mxCell id="7wCd9xXMiUG44QtGpDFo-149" value="DevOps Work Item" style="rounded=0;whiteSpace=wrap;html=1;" vertex="1" parent="1">
          <mxGeometry x="-230" y="130" width="120" height="60" as="geometry" />
        </mxCell>
        <mxCell id="7wCd9xXMiUG44QtGpDFo-154" value="Yes" style="edgeStyle=orthogonalEdgeStyle;rounded=0;orthogonalLoop=1;jettySize=auto;html=1;" edge="1" parent="1" source="7wCd9xXMiUG44QtGpDFo-151" target="7wCd9xXMiUG44QtGpDFo-153">
          <mxGeometry relative="1" as="geometry" />
        </mxCell>
        <mxCell id="7wCd9xXMiUG44QtGpDFo-151" value="Datawarehouse?" style="rhombus;whiteSpace=wrap;html=1;" vertex="1" parent="1">
          <mxGeometry x="-230" y="230" width="120" height="80" as="geometry" />
        </mxCell>
        <mxCell id="7wCd9xXMiUG44QtGpDFo-157" value="" style="edgeStyle=orthogonalEdgeStyle;rounded=0;orthogonalLoop=1;jettySize=auto;html=1;" edge="1" parent="1" source="7wCd9xXMiUG44QtGpDFo-153" target="7wCd9xXMiUG44QtGpDFo-156">
          <mxGeometry relative="1" as="geometry" />
        </mxCell>
        <mxCell id="7wCd9xXMiUG44QtGpDFo-153" value="Triaged by Hippo" style="rounded=0;whiteSpace=wrap;html=1;" vertex="1" parent="1">
          <mxGeometry x="-390" y="240" width="120" height="60" as="geometry" />
        </mxCell>
        <mxCell id="7wCd9xXMiUG44QtGpDFo-156" value="Ticket Raised in Halo" style="rounded=0;whiteSpace=wrap;html=1;" vertex="1" parent="1">
          <mxGeometry x="-390" y="340" width="120" height="60" as="geometry" />
        </mxCell>
      </root>
    </mxGraphModel>
  </diagram>
</mxfile>
